Coordinates
version=1
nRows=17
nColumns=38
inDegrees=no

Units are S.I. units (second, meters, Newtons, ...)
If the header above contains a line with 'inDegrees', this indicates whether rotational values are in degrees (yes) or radians (no).

endheader
time	pelvis_tilt	pelvis_list	pelvis_rotation	pelvis_tx	pelvis_ty	pelvis_tz	hip_flexion_r	hip_adduction_r	hip_rotation_r	knee_angle_r	ankle_angle_r	subtalar_angle_r	mtp_angle_r	hip_flexion_l	hip_adduction_l	hip_rotation_l	knee_angle_l	ankle_angle_l	subtalar_angle_l	mtp_angle_l	lumbar_extension	lumbar_bending	lumbar_rotation	arm_flex_r	arm_add_r	arm_rot_r	elbow_flex_r	pro_sup_r	wrist_flex_r	wrist_dev_r	arm_flex_l	arm_add_l	arm_rot_l	elbow_flex_l	pro_sup_l	wrist_flex_l	wrist_dev_l
1.71	1.93163	1.42687	-0.0918684	0.693749	1.56971	1.0368	0.226425	0.0885015	-0.232469	0.261993	-0.148	0	0	-0.136153	-0.273005	-0.168	0.921053	-0.337721	0	0	-0.411217	0.204374	-0.0790879	-0.116813	-0.408902	0.350037	0.67494	0.743994	0	0	0.0440247	-0.499191	0.26354	0.861784	1.46998	0	0
1.72	1.93257	1.42758	-0.0863208	0.693724	1.58208	1.0377	0.213839	0.0902381	-0.240194	0.263878	-0.134692	0	0	-0.1086	-0.271148	-0.146349	0.969429	-0.348715	0	0	-0.41109	0.205638	-0.0807741	-0.117641	-0.407753	0.350858	0.67384	0.744081	0	0	0.0418536	-0.498967	0.278445	0.855788	1.46207	0	0
1.73	1.94135	1.42901	-0.0904531	0.693779	1.59429	1.03887	0.199481	0.0919737	-0.2437	0.263626	-0.124227	0	0	-0.0831465	-0.267675	-0.128691	1.01392	-0.342307	0	0	-0.412728	0.205115	-0.0808757	-0.117747	-0.40697	0.352076	0.672571	0.744379	0	0	0.039646	-0.498415	0.291594	0.850451	1.45818	0	0
1.74	1.96029	1.43103	-0.107812	0.693962	1.60646	1.04037	0.183892	0.0939355	-0.242728	0.263294	-0.114292	0	0	-0.0612541	-0.262826	-0.117033	1.05323	-0.320901	0	0	-0.416203	0.202624	-0.0781669	-0.11761	-0.406328	0.352391	0.670801	0.743762	0	0	0.0376724	-0.497375	0.304369	0.84518	1.45547	0	0
1.75	1.98057	1.43367	-0.128372	0.694209	1.61879	1.04206	0.16793	0.095964	-0.237847	0.261698	-0.10437	0	0	-0.041192	-0.25716	-0.11048	1.08753	-0.286221	0	0	-0.419162	0.198694	-0.0739185	-0.117498	-0.405411	0.352626	0.667227	0.742689	0	0	0.0358081	-0.495946	0.318232	0.838574	1.45346	0	0
1.76	2.00409	1.43652	-0.152616	0.694471	1.63118	1.04387	0.150698	0.0980491	-0.231728	0.257276	-0.0970845	0	0	-0.0221608	-0.25125	-0.107288	1.11741	-0.248564	0	0	-0.421941	0.194089	-0.0697218	-0.116879	-0.404433	0.354119	0.662475	0.742872	0	0	0.0329931	-0.494124	0.330352	0.83189	1.45295	0	0
1.77	2.03346	1.43937	-0.182796	0.694696	1.64354	1.04575	0.131302	0.0999776	-0.227898	0.250535	-0.0921043	0	0	-0.00398894	-0.244621	-0.105395	1.1431	-0.210064	0	0	-0.424977	0.189001	-0.0658101	-0.116205	-0.403452	0.355772	0.65757	0.743506	0	0	0.0290047	-0.491884	0.339878	0.826031	1.45188	0	0
1.78	2.0695	1.44227	-0.219996	0.694789	1.65578	1.04776	0.111038	0.101172	-0.224194	0.243686	-0.0885478	0	0	0.0129686	-0.238337	-0.106771	1.16342	-0.174555	0	0	-0.428658	0.18358	-0.0621588	-0.11525	-0.402772	0.357491	0.65296	0.744189	0	0	0.0243751	-0.488958	0.347353	0.82021	1.45055	0	0
1.79	2.11129	1.44484	-0.263461	0.694851	1.66801	1.04986	0.0897013	0.102117	-0.220835	0.235956	-0.0863017	0	0	0.0286193	-0.232535	-0.109911	1.17801	-0.146481	0	0	-0.432944	0.178015	-0.0588	-0.114104	-0.402374	0.359416	0.648958	0.744961	0	0	0.0185393	-0.485489	0.351977	0.814712	1.44901	0	0
1.8	2.15788	1.44696	-0.311926	0.694861	1.68022	1.05201	0.0669646	0.102796	-0.219949	0.226515	-0.0851663	0	0	0.0430073	-0.227113	-0.113892	1.18662	-0.120955	0	0	-0.437477	0.172383	-0.0557999	-0.113039	-0.402296	0.362041	0.645784	0.746423	0	0	0.0120385	-0.481997	0.355483	0.809475	1.44658	0	0
1.81	2.20462	1.44875	-0.360473	0.694796	1.69237	1.05408	0.0436333	0.103253	-0.222283	0.215651	-0.0852804	0	0	0.0572401	-0.222405	-0.118469	1.19004	-0.100376	0	0	-0.441696	0.167001	-0.0532349	-0.1125	-0.40266	0.364478	0.644109	0.74808	0	0	0.00523996	-0.478686	0.358808	0.804447	1.44327	0	0
1.82	2.25103	1.45056	-0.408786	0.694667	1.70446	1.05604	0.0200769	0.103281	-0.226736	0.203519	-0.0865802	0	0	0.0713036	-0.217895	-0.12324	1.18836	-0.0845521	0	0	-0.445467	0.161539	-0.0506232	-0.112474	-0.403303	0.366522	0.643304	0.749742	0	0	-0.00126375	-0.475164	0.361857	0.798937	1.43817	0	0
1.83	2.29773	1.45216	-0.457393	0.694477	1.71651	1.05789	-0.00328896	0.103137	-0.233542	0.19125	-0.0888072	0	0	0.0849208	-0.214097	-0.129229	1.18166	-0.0732934	0	0	-0.449031	0.156069	-0.0481796	-0.113386	-0.404158	0.367373	0.644207	0.751028	0	0	-0.00761335	-0.471763	0.364715	0.793642	1.43033	0	0
1.84	2.34092	1.45438	-0.502477	0.694271	1.7285	1.05945	-0.0261495	0.102517	-0.240831	0.176924	-0.0921471	0	0	0.0991017	-0.210488	-0.137119	1.1707	-0.0648444	0	0	-0.451527	0.149979	-0.0460126	-0.115401	-0.405045	0.367248	0.6467	0.752554	0	0	-0.0137703	-0.469236	0.368849	0.788882	1.42073	0	0
1.85	2.38694	1.45601	-0.551242	0.694102	1.74046	1.06098	-0.0487138	0.102157	-0.247732	0.16331	-0.0962202	0	0	0.111798	-0.207311	-0.146473	1.15483	-0.0574524	0	0	-0.454743	0.14356	-0.0425269	-0.117818	-0.406122	0.367227	0.650133	0.754924	0	0	-0.0189558	-0.467566	0.375236	0.783954	1.41376	0	0
1.86	2.43964	1.45686	-0.607425	0.693998	1.75241	1.06245	-0.0715401	0.101709	-0.253219	0.150737	-0.100301	0	0	0.122329	-0.204896	-0.158199	1.13424	-0.0509055	0	0	-0.459117	0.136827	-0.037995	-0.120631	-0.407186	0.365876	0.65431	0.756965	0	0	-0.0235093	-0.466501	0.382023	0.7795	1.40652	0	0
1.87	2.49762	1.46896	-0.670884	0.693993	1.76441	1.06204	-0.0847435	0.0745804	-0.255976	0.143186	-0.10423	0	0	0.139512	-0.191803	-0.173252	1.11309	-0.0422885	0	0	-0.453925	0.119475	-0.0359283	-0.128742	-0.406962	0.360043	0.662777	0.760109	0	0	-0.0323885	-0.469641	0.388587	0.780807	1.39552	0	0
